<?xml version="1.0" encoding="utf-8"?>
<!-- Generator: Adobe Illustrator 27.1.1, SVG Export Plug-In . SVG Version: 6.00 Build 0)  -->
<svg version="1.1" xmlns="http://www.w3.org/2000/svg" xmlns:xlink="http://www.w3.org/1999/xlink" x="0px" y="0px"
	 viewBox="0 0 1500 299.9" style="enable-background:new 0 0 1500 299.9;" xml:space="preserve">
<style type="text/css">
	.st0{fill:#074348;}
	.st1{font-family:'BigNoodleTitling';}
	.st2{font-size:132.2545px;}
	.st3{fill:#D4E7F6;}
</style>
<g id="Calque_1">
	<text transform="matrix(1 -2.654590e-03 2.654590e-03 1 27.4913 128.5725)" class="st0 st1 st2">Bonne </text>
	<text transform="matrix(1 -2.654590e-03 2.654590e-03 1 134.3846 239.8432)" class="st0 st1 st2">Année</text>
	<g id="snowflake_5_">
		<path class="st3" d="M365.8,68l-2.8-1.6l5.6-1.5l-0.5-1.8l-7.4,2l-3.8-2.2l2.6-4.5l3.3,3.3l4.1-4.1l-4.1-4.1l-3.3,3.3l-2.6-4.5
			l3.8-2.2l7.4,2l0.5-1.8l-5.6-1.5l2.8-1.6l8.1-0.7l1.6-6l-5.9-1.6l-0.1,0l-4.7,6.7l-2.8,1.6l1.5-5.6l-1.8-0.5l-2,7.4l-3.8,2.2
			l-2.6-4.5l4.5-1.2l-1.5-5.6l-5.6,1.5l1.2,4.5h-5.2V41l5.4-5.4l-1.3-1.3l-4.1,4.1v-3.2l3.5-7.4l-4.4-4.4l-4.4,4.4l3.5,7.4v3.2
			l-4.1-4.1l-1.3,1.3L345,41v4.3h-5.2l1.2-4.5l-5.6-1.5l-1.5,5.6l4.5,1.2l-2.6,4.5l-3.8-2.2l-2-7.4l-1.8,0.5l1.5,5.6l-2.8-1.6
			l-4.7-6.7l-6,1.6l1.6,6l8.1,0.7l2.8,1.6l-5.6,1.5l0.5,1.8l7.4-2l3.8,2.2l-2.6,4.5l-3.3-3.3l-4.1,4.1l4.1,4.1l3.3-3.3l2.6,4.5
			l-3.8,2.2l-7.4-2l-0.5,1.8l5.6,1.5L326,68l-8.1,0.7l-1.6,6l5.9,1.6l0.1,0l4.7-6.7l2.8-1.6l-1.5,5.6L330,74l2-7.4l3.8-2.2l2.6,4.5
			l-4.5,1.2l1.5,5.6l5.6-1.5l-1.2-4.5h5.2v4.3l-5.4,5.4l1.3,1.3l4.1-4.1V80l-3.5,7.4l4.4,4.4l4.4-4.4l-3.5-7.4v-3.2l4.1,4.1l1.3-1.3
			l-5.4-5.4v-4.3h5.2l-1.2,4.5l5.6,1.5l1.5-5.6l-4.5-1.2l2.6-4.5l3.8,2.2l2,7.4l1.8-0.5l-1.5-5.6l2.8,1.6l4.7,6.7l6-1.6l-1.6-6
			L365.8,68z M372.5,70.5l0.8,2.9l-2.9,0.8l-2.9-4.2L372.5,70.5z M353.1,73l0.5-2l2,0.5l-0.5,2L353.1,73z M336.7,73.6l-0.5-2l2-0.5
			l0.5,2L336.7,73.6z M338.7,42.1l-0.5,2l-2-0.5l0.5-2L338.7,42.1z M355.2,41.6l0.5,2l-2,0.5l-0.5-2L355.2,41.6z M357.9,57.6
			l-6,10.4h-12l-6-10.4l6-10.4h12L357.9,57.6z M362.9,59.1l-1.5-1.5l1.5-1.5l1.5,1.5L362.9,59.1z M373.3,41.8l-0.8,2.9l-5.1,0.4
			l2.9-4.2L373.3,41.8z M346,25.9l2.2,2.2l-2.2,4.6l-2.2-4.6L346,25.9z M321.5,40.9l2.9,4.2l-5.1-0.4l-0.8-2.9L321.5,40.9z
			 M329,56.1l1.5,1.5l-1.5,1.5l-1.5-1.5L329,56.1z M318.5,73.4l0.8-2.9l5.1-0.4l-2.9,4.2L318.5,73.4z M345.9,89.2l-2.2-2.2l2.2-4.6
			l2.2,4.6L345.9,89.2z"/>
		<path class="st3" d="M351.1,48.6h-10.4l-5.2,9l5.2,9l0,0.1h10.4l5.2-9L351.1,48.6L351.1,48.6z M341.8,64.7l-4.1-7.2l4.1-7.2h8.3
			l4.1,7.2l-4.1,7.2H341.8z"/>
		<path class="st3" d="M349.3,51.8L349.3,51.8l-6.7-0.1l-3.3,5.8l3.3,5.7l0,0.1h6.7l3.3-5.8L349.3,51.8z M343.7,61.5l-2.3-3.9
			l2.3-3.9h4.5l2.3,3.9l-2.3,3.9H343.7z"/>
	</g>
	<g id="snowflake_00000099636077422999331920000017602607270720005765_">
		<path class="st3" d="M436.7,234.8l-1.6-0.9l3.3-0.9l-0.3-1l-4.3,1.2l-2.2-1.3l1.5-2.7l1.9,1.9l2.4-2.4l-2.4-2.4l-1.9,1.9l-1.5-2.6
			l2.2-1.3l4.3,1.2l0.3-1l-3.3-0.9l1.6-0.9l4.8-0.4l0.9-3.5l-3.5-0.9l0,0l-2.7,3.9l-1.6,0.9l0.9-3.3l-1-0.3l-1.2,4.3l-2.2,1.3
			l-1.5-2.7l2.6-0.7l-0.9-3.3l-3.3,0.9l0.7,2.6h-3V219l3.2-3.2l-0.8-0.8l-2.4,2.4v-1.9l2-4.3l-2.6-2.6l-2.6,2.6l2,4.3v1.9l-2.4-2.4
			l-0.8,0.8l3.2,3.2v2.5h-3.1l0.7-2.6l-3.3-0.9l-0.9,3.3l2.6,0.7l-1.5,2.6l-2.2-1.3l-1.2-4.3l-1,0.3l0.9,3.3l-1.6-0.9l-2.7-3.9
			l-3.5,0.9l0.9,3.5l4.8,0.4l1.6,0.9l-3.3,0.9l0.3,1l4.3-1.2l2.2,1.3l-1.5,2.7l-1.9-1.9l-2.4,2.4l2.4,2.4l1.9-1.9l1.5,2.6l-2.2,1.3
			l-4.3-1.2l-0.3,1l3.3,0.9l-1.6,0.9l-4.8,0.4l-0.9,3.5l3.5,0.9l0,0l2.7-3.9l1.6-0.9l-0.9,3.3l1,0.3l1.2-4.3l2.2-1.3l1.5,2.7
			l-2.6,0.7l0.9,3.3l3.3-0.9l-0.7-2.6h3v2.5l-3.2,3.2l0.8,0.8l2.4-2.4v1.9l-2,4.3l2.6,2.6l2.6-2.6l-2-4.3V240l2.4,2.4l0.8-0.8
			l-3.2-3.2v-2.5h3.1l-0.7,2.6l3.3,0.9l0.9-3.3l-2.6-0.7l1.5-2.6l2.2,1.3l1.2,4.3l1-0.3l-0.9-3.3l1.6,0.9l2.7,3.9l3.5-0.9l-0.9-3.5
			L436.7,234.8z M440.6,236.3l0.5,1.7l-1.7,0.5l-1.7-2.4L440.6,236.3z M429.2,237.8l0.3-1.2l1.2,0.3l-0.3,1.2L429.2,237.8z
			 M419.6,238.1l-0.3-1.2l1.2-0.3l0.3,1.2L419.6,238.1z M420.8,219.7l-0.3,1.2l-1.2-0.3l0.3-1.2L420.8,219.7z M430.4,219.4l0.3,1.2
			l-1.2,0.3l-0.3-1.2L430.4,219.4z M432.1,228.7l-3.5,6.1h-7l-3.5-6.1l3.5-6.1h7L432.1,228.7z M435,229.6l-0.9-0.9l0.9-0.9l0.9,0.9
			L435,229.6z M441.1,219.5l-0.5,1.7l-3,0.3l1.7-2.4L441.1,219.5z M425.1,210.2l1.3,1.3l-1.3,2.7l-1.3-2.7L425.1,210.2z M410.7,219
			l1.7,2.4l-3-0.3l-0.5-1.7L410.7,219z M415.1,227.9l0.9,0.9l-0.9,0.9l-0.9-0.9L415.1,227.9z M409,238l0.5-1.7l3-0.3l-1.7,2.4
			L409,238z M425,247.2l-1.3-1.3l1.3-2.7l1.3,2.7L425,247.2z"/>
		<path class="st3" d="M428.1,223.5H422l-3,5.3l3,5.2l0,0h6.1l3-5.3L428.1,223.5L428.1,223.5z M422.6,232.9l-2.4-4.2l2.4-4.2h4.8
			l2.4,4.2l-2.4,4.2H422.6z"/>
		<path class="st3" d="M427,225.4L427,225.4l-3.9,0l-2,3.4l1.9,3.4l0,0h3.9l2-3.4L427,225.4z M423.7,231l-1.3-2.3l1.3-2.3h2.7
			l1.3,2.3l-1.3,2.3H423.7z"/>
	</g>
	<g id="snowflake_00000096024718901510314070000004485066473233485955_">
		<path class="st3" d="M565.4,83.2l-2.8-1.6l5.6-1.5l-0.5-1.8l-7.4,2l-3.8-2.2l2.6-4.5l3.3,3.3l4.1-4.1l-4.1-4.1l-3.3,3.3l-2.6-4.5
			l3.8-2.2l7.4,2l0.5-1.8l-5.6-1.5l2.8-1.6l8.1-0.7l1.6-6l-5.9-1.6l-0.1,0l-4.7,6.7l-2.8,1.6l1.5-5.6l-1.8-0.5l-2,7.4l-3.8,2.2
			l-2.6-4.5l4.5-1.2l-1.5-5.6l-5.6,1.5l1.2,4.5h-5.2v-4.3l5.4-5.4l-1.3-1.3l-4.1,4.1v-3.2l3.5-7.4l-4.4-4.4l-4.4,4.4l3.5,7.4v3.2
			l-4.1-4.1l-1.3,1.3l5.4,5.4v4.3h-5.2l1.2-4.5l-5.6-1.5l-1.5,5.6l4.5,1.2l-2.6,4.5l-3.8-2.2l-2-7.4l-1.8,0.5l1.5,5.6l-2.8-1.6
			l-4.7-6.7l-6,1.6l1.6,6l8.1,0.7l2.8,1.6l-5.6,1.5l0.5,1.8l7.4-2l3.8,2.2l-2.6,4.5l-3.3-3.3l-4.1,4.1l4.1,4.1l3.3-3.3l2.6,4.5
			l-3.8,2.2l-7.4-2l-0.5,1.8l5.6,1.5l-2.8,1.6l-8.1,0.7l-1.6,6l5.9,1.6l0.1,0l4.7-6.7l2.8-1.6l-1.5,5.6l1.8,0.5l2-7.4l3.8-2.2
			l2.6,4.5l-4.5,1.2l1.5,5.6l5.6-1.5l-1.2-4.5h5.2v4.3l-5.4,5.4l1.3,1.3l4.1-4.1v3.2l-3.5,7.4l4.4,4.4l4.4-4.4l-3.5-7.4V92l4.1,4.1
			l1.3-1.3l-5.4-5.4V85h5.2l-1.2,4.5L556,91l1.5-5.6l-4.5-1.2l2.6-4.5l3.8,2.2l2,7.4l1.8-0.5l-1.5-5.6l2.8,1.6l4.7,6.7l6-1.6l-1.6-6
			L565.4,83.2z M572.1,85.7l0.8,2.9l-2.9,0.8l-2.9-4.2L572.1,85.7z M552.7,88.2l0.5-2l2,0.5l-0.5,2L552.7,88.2z M536.3,88.8l-0.5-2
			l2-0.5l0.5,2L536.3,88.8z M538.3,57.3l-0.5,2l-2-0.5l0.5-2L538.3,57.3z M554.7,56.8l0.5,2l-2,0.5l-0.5-2L554.7,56.8z M557.5,72.8
			l-6,10.4h-12l-6-10.4l6-10.4h12L557.5,72.8z M562.5,74.3l-1.5-1.5l1.5-1.5l1.5,1.5L562.5,74.3z M572.9,57l-0.8,2.9l-5.1,0.4
			l2.9-4.2L572.9,57z M545.5,41.2l2.2,2.2l-2.2,4.6l-2.2-4.6L545.5,41.2z M521.1,56.2l2.9,4.2l-5.1-0.4l-0.8-2.9L521.1,56.2z
			 M528.5,71.3l1.5,1.5l-1.5,1.5l-1.5-1.5L528.5,71.3z M518.1,88.6l0.8-2.9l5.1-0.4l-2.9,4.2L518.1,88.6z M545.5,104.4l-2.2-2.2
			l2.2-4.6l2.2,4.6L545.5,104.4z"/>
		<path class="st3" d="M550.7,63.8h-10.4l-5.2,9l5.2,9l0,0.1h10.4l5.2-9L550.7,63.8L550.7,63.8z M541.3,79.9l-4.1-7.2l4.1-7.2h8.3
			l4.1,7.2l-4.1,7.2H541.3z"/>
		<path class="st3" d="M548.9,67.1L548.9,67.1l-6.7-0.1l-3.3,5.8l3.3,5.7l0,0.1h6.7l3.3-5.8L548.9,67.1z M543.2,76.7l-2.3-3.9
			l2.3-3.9h4.5l2.3,3.9l-2.3,3.9H543.2z"/>
	</g>
	<g id="snowflake_00000163793170574847468310000009412753084882197406_">
		<path class="st3" d="M920.4,123.2l-2.8-1.6l5.6-1.5l-0.5-1.8l-7.4,2l-3.8-2.2l2.6-4.5l3.3,3.3l4.1-4.1l-4.1-4.1l-3.3,3.3l-2.6-4.5
			l3.8-2.2l7.4,2l0.5-1.8l-5.6-1.5l2.8-1.6l8.1-0.7l1.6-6l-5.9-1.6l-0.1,0l-4.7,6.7l-2.8,1.6l1.5-5.6l-1.8-0.5l-2,7.4l-3.8,2.2
			l-2.6-4.5l4.5-1.2l-1.5-5.6l-5.6,1.5l1.2,4.5h-5.2v-4.3l5.4-5.4l-1.3-1.3l-4.1,4.1v-3.2l3.5-7.4l-4.4-4.4l-4.4,4.4l3.5,7.4v3.2
			l-4.1-4.1l-1.3,1.3l5.4,5.4v4.3h-5.2l1.2-4.5l-5.6-1.5l-1.5,5.6l4.5,1.2l-2.6,4.5l-3.8-2.2l-2-7.4l-1.8,0.5l1.5,5.6l-2.8-1.6
			l-4.7-6.7l-6,1.6l1.6,6l8.1,0.7l2.8,1.6l-5.6,1.5l0.5,1.8l7.4-2l3.8,2.2l-2.6,4.5l-3.3-3.3l-4.1,4.1l4.1,4.1l3.3-3.3l2.6,4.5
			l-3.8,2.2l-7.4-2l-0.5,1.8l5.6,1.5l-2.8,1.6l-8.1,0.7l-1.6,6l5.9,1.6l0.1,0l4.7-6.7l2.8-1.6l-1.5,5.6l1.8,0.5l2-7.4l3.8-2.2
			l2.6,4.5l-4.5,1.2l1.5,5.6l5.6-1.5l-1.2-4.5h5.2v4.3l-5.4,5.4l1.3,1.3l4.1-4.1v3.2l-3.5,7.4l4.4,4.4l4.4-4.4l-3.5-7.4v-3.2
			l4.1,4.1l1.3-1.3l-5.4-5.4V125h5.2l-1.2,4.5l5.6,1.5l1.5-5.6l-4.5-1.2l2.6-4.5l3.8,2.2l2,7.4l1.8-0.5l-1.5-5.6l2.8,1.6l4.7,6.7
			l6-1.6l-1.6-6L920.4,123.2z M927.1,125.6l0.8,2.9l-2.9,0.8l-2.9-4.2L927.1,125.6z M907.7,128.1l0.5-2l2,0.5l-0.5,2L907.7,128.1z
			 M891.3,128.7l-0.5-2l2-0.5l0.5,2L891.3,128.7z M893.3,97.3l-0.5,2l-2-0.5l0.5-2L893.3,97.3z M909.8,96.7l0.5,2l-2,0.5l-0.5-2
			L909.8,96.7z M912.5,112.7l-6,10.4h-12l-6-10.4l6-10.4h12L912.5,112.7z M917.5,114.2l-1.5-1.5l1.5-1.5l1.5,1.5L917.5,114.2z
			 M927.9,96.9l-0.8,2.9l-5.1,0.4l2.9-4.2L927.9,96.9z M900.6,81.1l2.2,2.2l-2.2,4.6l-2.2-4.6L900.6,81.1z M876.1,96.1l2.9,4.2
			l-5.1-0.4l-0.8-2.9L876.1,96.1z M883.6,111.2l1.5,1.5l-1.5,1.5l-1.5-1.5L883.6,111.2z M873.1,128.5l0.8-2.9l5.1-0.4l-2.9,4.2
			L873.1,128.5z M900.5,144.3l-2.2-2.2l2.2-4.6l2.2,4.6L900.5,144.3z"/>
		<path class="st3" d="M905.7,103.7h-10.4l-5.2,9l5.2,9l0,0.1h10.4l5.2-9L905.7,103.7L905.7,103.7z M896.4,119.9l-4.1-7.2l4.1-7.2
			h8.3l4.1,7.2l-4.1,7.2H896.4z"/>
		<path class="st3" d="M903.9,107L903.9,107l-6.7-0.1l-3.3,5.8l3.3,5.7l0,0.1h6.7l3.3-5.8L903.9,107z M898.3,116.6l-2.3-3.9l2.3-3.9
			h4.5l2.3,3.9l-2.3,3.9H898.3z"/>
	</g>
	<g id="snowflake_00000179616677631797249620000002849767004620010626_">
		<path class="st3" d="M1144.4,233.5l-1.2-0.7l2.4-0.6l-0.2-0.8l-3.1,0.8l-1.6-0.9l1.1-1.9l1.4,1.4l1.7-1.7l-1.7-1.7l-1.4,1.4
			l-1.1-1.9l1.6-0.9l3.1,0.8l0.2-0.8l-2.4-0.6l1.2-0.7l3.5-0.3l0.7-2.5l-2.5-0.7l0,0l-2,2.8l-1.2,0.7l0.6-2.4l-0.8-0.2l-0.8,3.1
			l-1.6,0.9l-1.1-1.9l1.9-0.5l-0.6-2.4l-2.4,0.6l0.5,1.9h-2.2V222l2.3-2.3l-0.6-0.6l-1.7,1.7v-1.4l1.5-3.1l-1.9-1.9l-1.9,1.9
			l1.5,3.1v1.4l-1.7-1.7l-0.6,0.6l2.3,2.3v1.8h-2.2l0.5-1.9l-2.4-0.6l-0.6,2.4l1.9,0.5l-1.1,1.9l-1.6-0.9l-0.8-3.1l-0.8,0.2l0.6,2.4
			l-1.2-0.7l-2-2.8l-2.5,0.7l0.7,2.5l3.5,0.3l1.2,0.7l-2.4,0.6l0.2,0.8l3.1-0.8l1.6,0.9l-1.1,1.9l-1.4-1.4l-1.7,1.7l1.7,1.7l1.4-1.4
			l1.1,1.9l-1.6,0.9l-3.1-0.8l-0.2,0.8l2.4,0.6l-1.2,0.7l-3.5,0.3l-0.7,2.5l2.5,0.7l0,0l2-2.8l1.2-0.7l-0.6,2.4l0.8,0.2l0.8-3.1
			l1.6-0.9l1.1,1.9l-1.9,0.5l0.6,2.4l2.4-0.6l-0.5-1.9h2.2v1.8l-2.3,2.3l0.6,0.6l1.7-1.7v1.4l-1.5,3.1l1.9,1.9l1.9-1.9l-1.5-3.1
			v-1.4l1.7,1.7l0.6-0.6l-2.3-2.3v-1.8h2.2l-0.5,1.9l2.4,0.6l0.6-2.4l-1.9-0.5l1.1-1.9l1.6,0.9l0.8,3.1l0.8-0.2l-0.6-2.4l1.2,0.7
			l2,2.8l2.5-0.7l-0.7-2.5L1144.4,233.5z M1147.2,234.5l0.3,1.2l-1.2,0.3l-1.2-1.8L1147.2,234.5z M1139,235.6l0.2-0.9l0.9,0.2
			l-0.2,0.9L1139,235.6z M1132.1,235.8l-0.2-0.9l0.9-0.2l0.2,0.9L1132.1,235.8z M1132.9,222.5l-0.2,0.9l-0.9-0.2l0.2-0.9
			L1132.9,222.5z M1139.9,222.3l0.2,0.9l-0.9,0.2l-0.2-0.9L1139.9,222.3z M1141.1,229l-2.5,4.4h-5.1l-2.5-4.4l2.5-4.4h5.1
			L1141.1,229z M1143.2,229.7l-0.6-0.6l0.6-0.6l0.6,0.6L1143.2,229.7z M1147.6,222.4l-0.3,1.2l-2.2,0.2l1.2-1.8L1147.6,222.4z
			 M1136,215.6l0.9,0.9l-0.9,2l-0.9-2L1136,215.6z M1125.6,222l1.2,1.8l-2.2-0.2l-0.3-1.2L1125.6,222z M1128.8,228.4l0.6,0.6
			l-0.6,0.6l-0.6-0.6L1128.8,228.4z M1124.4,235.7l0.3-1.2l2.2-0.2l-1.2,1.8L1124.4,235.7z M1136,242.4l-0.9-0.9l0.9-2l0.9,2
			L1136,242.4z"/>
		<path class="st3" d="M1138.2,225.2h-4.4l-2.2,3.8l2.2,3.8l0,0h4.4l2.2-3.8L1138.2,225.2L1138.2,225.2z M1134.2,232.1l-1.8-3l1.8-3
			h3.5l1.8,3l-1.8,3H1134.2z"/>
		<path class="st3" d="M1137.4,226.6L1137.4,226.6l-2.8,0l-1.4,2.4l1.4,2.4l0,0h2.8l1.4-2.4L1137.4,226.6z M1135,230.7l-1-1.7l1-1.7
			h1.9l1,1.7l-1,1.7H1135z"/>
	</g>
	<path id="snowflake_14_" class="st3" d="M552.3,174.5l-1.4-0.8l4-1.9l-0.5-1.1l-4.7,2.3l-1-0.6l5.7-2.7l0.1,0l-0.5-1.1l-6.5,3.1
		l-2.1-1.2l7.6-3.3l-6.9-3l1.4-0.8l6.4,3.1l0.1,0l0.5-1.1l-5.7-2.8l1-0.6l4.7,2.3l0.5-1.1l-4-1.9l1.3-0.8l0,0l5.4-0.5l1-3.9l0-0.1
		l-4-1.1l-3.1,4.4l-1.4,0.8l0.3-4.4l-1.2-0.1l-0.4,5.2l-1,0.6l0.5-6.3l0-0.1l-1.2-0.1l-0.5,7.2l-1.8,1l0.9-8.1l0-0.2l-6.4,4.7v-1.6
		l6-4.1l-0.7-1l-5.3,3.6v-1.1l4.3-2.9l-0.7-1l-3.6,2.5v-1.6l2.3-4.9l-2.9-2.9l-2.9,2.9l2.3,4.9v1.6l-3.6-2.5l-0.7,1l4.3,2.9v1.1
		l-5.2-3.5l-0.1,0l-0.7,1l6,4.1v1.7l-6.4-4.7l0.9,8.2l-1.8-1l-0.5-7.1l0-0.1l-1.2,0.1l0.5,6.4l-1-0.6l-0.4-5.2l0-0.1l-1.2,0.1
		l0.3,4.4l-1.3-0.8l0,0l-3.1-4.4l0,0l-4,1.1l1.1,4l5.4,0.5l1.4,0.8l-4,1.9l0.5,1.1l4.7-2.3l1,0.6l-5.7,2.8l0.5,1.1l6.5-3.1l1.4,0.8
		l-6.9,3.1l7.6,3.4l-2.1,1.2l-6.5-3.1l-0.5,1.1l5.7,2.8l-1,0.6l-4.7-2.3l-0.5,1.1l4,1.9l-1.4,0.8l-5.3,0.5l0,0l-1,3.9l0,0.1l3.9,1.1
		l0,0l3.1-4.4l1.4-0.8l-0.3,4.4l1.2,0.1l0.4-5.2l1-0.6l-0.5,6.3l0,0.1l1.2,0.1l0.5-7.2l1.7-1l-0.8,7.3l0,0.2l6.4-4.7v2.4l-6,4.1
		l0.7,1l5.3-3.6v1.1l-4.3,2.9l0.7,1l3.6-2.5v1.6l-2.3,4.9l0,0l2.9,2.9l2.9-2.9l-2.3-4.9V181l3.6,2.5l0.7-1l-4.3-2.9v-1.1l5.3,3.6
		l0.7-1l-6-4.1v-2.3l6.4,4.7l-0.8-7.5l1.7,1l0.5,7.1l0,0.1l1.2-0.1l-0.5-6.4l1,0.6l0.4,5.2l0,0.1l1.2-0.1l-0.3-4.4l1.3,0.8l0,0
		l3.1,4.4l4-1.1l-1.1-4L552.3,174.5z M556.8,176.1l0.5,1.9l-1.9,0.5l-1.9-2.7L556.8,176.1z M538.9,188.7l-1.4-1.4l1.4-3l1.4,3
		L538.9,188.7z M538.9,146.1l1.4,1.4l-1.4,3l-1.4-3L538.9,146.1z M540.1,167.4l2.2-1.3l2.1,0.9l-2.8,1.2L540.1,167.4z M539.5,166.3
		v-2.5l2.2-1.6l-0.3,3.1L539.5,166.3z M538.2,166.3l-1.9-1.1l-0.3-3l2.2,1.6V166.3z M537.6,167.4l-1.6,0.9l-2.8-1.2l2.1-0.9
		L537.6,167.4z M538.2,168.5v1.8l-2.2,1.6l0.3-2.3L538.2,168.5z M539.5,168.5l1.9,1.1l0.3,2.3l-2.2-1.6V168.5z M543,169l4.5-2
		l-3.9-1.7l1-0.6l5.2,2.3l-5.8,2.6L543,169z M542.6,164.5l0.5-5l-3.7,2.7v-1.1l4.8-3.5l-0.7,6.4L542.6,164.5z M538.2,162.3l-3.7-2.7
		l0.5,4.9l-1-0.6l-0.7-6.3l4.9,3.6V162.3z M534,165.3l-3.9,1.7l4.6,2l-1,0.6l-5.9-2.6l5.2-2.3L534,165.3z M534.9,170.4l-0.5,4.2
		l3.7-2.7v1.1l-4.9,3.6l0.6-5.6L534.9,170.4z M539.5,171.9l3.7,2.7l-0.5-4.2l1,0.6l0.6,5.6l-4.8-3.5V171.9z M557.3,156.7l-0.5,1.9
		l-3.3,0.3l1.9-2.7L557.3,156.7z M522.4,156.2l1.9,2.7l-3.3-0.3l-0.5-1.9L522.4,156.2z M520.4,178l0.5-1.9l3.3-0.3l-1.9,2.7
		L520.4,178z"/>
	<path id="snowflake_1_" class="st3" d="M478.8,118.7l6.5-3.7v-7.5l-6.5-3.7l-6.5,3.7v5.9c-1.1,0.6-2.3,1.2-3.4,1.8l-0.5-9.4
		l-2.6,0.1l0.6,10.7c-0.8,0.5-1.6,0.9-2.4,1.4l-0.5-9.4l-2.6,0.1l0.6,10.7c-1,0.6-2,1.2-3,1.8l-11.5-6.6c0-1.1,0-2.3,0-3.4l9.8-5
		l-1.2-2.3l-8.6,4.4c0-0.9,0-1.9,0-2.8l9.8-5l-1.2-2.3l-8.6,4.4c0-1.3,0-2.6,0-3.9l5.2-3v-7.5l-6.5-3.7l-6.5,3.7v7.5l5.2,3
		c0,1.3,0,2.6,0,3.9l-8.5-4.4l-1.2,2.3l9.7,4.9c0,0.9,0,1.9,0,2.8l-8.5-4.3l-1.2,2.3l9.7,4.9c0,1.2,0,2.3,0,3.5l-11.7,6.8
		c-1-0.6-1.9-1.2-2.8-1.8l0.6-11l-2.6-0.1l-0.5,9.5c-0.8-0.5-1.6-1-2.4-1.5l0.6-10.7l-2.6-0.1l-0.5,9.4c-1.1-0.6-2.2-1.3-3.4-1.9
		v-5.8l-6.5-3.7l-6.5,3.7v7.5l6.5,3.7l5.3-3.1c1.2,0.6,2.3,1.2,3.4,1.9l-8.3,5.4l1.4,2.1l9.3-6.1c0.8,0.5,1.6,1,2.3,1.5l-8.1,5.3
		l1.4,2.1l9.1-5.9c1.1,0.7,2.2,1.4,3.3,2v12.9c-1.1,0.6-2.1,1.2-3.2,1.9l-9.2-6l-1.4,2.1l8.1,5.3c-0.8,0.5-1.6,0.9-2.4,1.4l-9.2-6
		l-1.4,2.1l8.1,5.3c-1.2,0.7-2.3,1.3-3.4,1.9l-5.2-3l-6.5,3.7v7.5l6.5,3.7l6.5-3.7v-6c1.1-0.6,2.2-1.3,3.4-1.9l0.5,9.6l2.6-0.1
		l-0.6-10.8c0.8-0.5,1.6-0.9,2.4-1.4l0.5,9.5l2.6-0.1l-0.6-10.8c1.2-0.7,2.3-1.3,3.5-2l11.1,6.4c0,1.3,0,2.6,0,4l-9.8,5l1.2,2.3
		l8.6-4.4c0,0.9,0,1.9,0,2.8l-9.8,5l1.2,2.3l8.6-4.4c0,1.3,0,2.6,0,3.9l-5.2,3v7.5l6.5,3.7l6.5-3.7v-7.5l-5.2-3c0-1.3,0-2.6,0-3.9
		l8.5,4.4l1.2-2.3L447,155c0-0.9,0-1.9,0-2.8l8.5,4.3l1.2-2.3l-9.7-4.9c0-1.3,0-2.6,0-3.9l11-6.4c1.2,0.7,2.3,1.4,3.5,2.1l-0.6,10.8
		l2.6,0.1l0.5-9.5c0.8,0.5,1.6,0.9,2.4,1.4l-0.6,10.8l2.6,0.1l0.5-9.5c1.1,0.6,2.2,1.3,3.4,1.9v5.9l6.5,3.7l6.5-3.7v-7.5l-6.5-3.7
		l-5.2,3c-1.1-0.6-2.3-1.3-3.4-1.9l8.2-5.3l-1.4-2.1l-9.3,6c-0.8-0.5-1.6-0.9-2.4-1.4l8.2-5.3l-1.4-2.1l-9.3,6c-1-0.6-2-1.2-3-1.8
		v-13.4c1-0.6,2-1.2,3-1.8l9.3,6.1l1.4-2.1l-8.2-5.4c0.8-0.5,1.6-0.9,2.4-1.4l9.3,6.1l1.4-2.1l-8.2-5.3c1.1-0.6,2.3-1.3,3.5-1.9
		L478.8,118.7z M475.6,113.1v-3.8l3.3-1.9l3.3,1.9l0,3.8l-3.3,1.9L475.6,113.1z M442.5,170.3v-3.8l3.3-1.9l3.3,1.9v3.8l-3.3,1.9
		L442.5,170.3z M449.1,90.3V94l-3.3,1.9l-3.3-1.9v-3.8l3.3-1.9L449.1,90.3z M450.8,127.1v5.8l-5,2.9l-5-2.9v-5.8l5-2.9L450.8,127.1z
		 M455.1,123.4c-0.9,0.6-1.9,1.1-2.8,1.7l-5.3-3c0-1.4,0-2.9,0-4.3l9,5.2C455.7,123,455.4,123.2,455.1,123.4z M444.5,122l-5.3,3.1
		c-1.3-0.6-2.6-1.3-3.9-2.1l9.2-5.3C444.5,119.1,444.5,120.6,444.5,122z M438.2,127.4v5.7c-1.2,0.7-2.5,1.5-3.8,2.2v-9.9
		C435.7,126.1,436.9,126.8,438.2,127.4z M439.7,135.3l4.8,2.8c0,1.4,0,2.9,0,4.3l-8.5-4.9C437.2,136.7,438.4,136,439.7,135.3z
		 M447,138.1l4.8-2.8c1.3,0.7,2.5,1.5,3.7,2.2l-8.5,4.9C447,141,447,139.5,447,138.1z M453.4,133.3v-5.9c1-0.6,2.1-1.2,3.1-1.8
		c0.2-0.1,0.5-0.3,0.7-0.4v10.3C455.9,134.8,454.7,134,453.4,133.3z M409.5,109.3l3.3-1.9l3.3,1.9v3.8l-3.3,1.9l-3.3-1.9V109.3z
		 M416,147.5v3.8l-3.3,1.9l-3.3-1.9l0-3.8l3.3-1.9L416,147.5z M482,151.3l-3.3,1.9l-3.3-1.9v-3.8l3.3-1.9l3.3,1.9V151.3z"/>
	<path id="snowflake_00000049217047616955080210000014540578000066138786_" class="st3" d="M746.6,241.4l-0.7-0.4l1.9-0.9l-0.3-0.5
		l-2.3,1.1l-0.5-0.3l2.7-1.3l0,0l-0.3-0.5l-3.1,1.5l-1-0.6l3.7-1.6l-3.3-1.5l0.7-0.4l3.1,1.5l0,0l0.3-0.5l-2.8-1.3l0.5-0.3l2.3,1.1
		l0.3-0.5l-1.9-0.9l0.7-0.4l0,0l2.6-0.2l0.5-1.9l0,0l-1.9-0.5l-1.5,2.2l-0.7,0.4l0.2-2.1l-0.6,0l-0.2,2.5l-0.5,0.3l0.2-3l0,0l-0.6,0
		l-0.3,3.5l-0.9,0.5l0.4-3.9l0-0.1l-3.1,2.3v-0.8l2.9-2l-0.3-0.5l-2.6,1.7v-0.5l2.1-1.4l-0.3-0.5l-1.8,1.2v-0.8l1.1-2.4l-1.4-1.4
		l-1.4,1.4l1.1,2.4v0.8l-1.8-1.2l-0.3,0.5l2.1,1.4v0.5l-2.5-1.7l0,0l-0.3,0.5l2.9,2v0.8l-3.1-2.3l0.4,4l-0.8-0.5L736,232l0,0l-0.6,0
		l0.2,3.1l-0.5-0.3l-0.2-2.5l0,0l-0.6,0l0.2,2.1l-0.7-0.4l0,0l-1.5-2.1l0,0l-1.9,0.5l0.5,1.9l2.6,0.2l0.7,0.4l-1.9,0.9l0.3,0.5
		l2.3-1.1l0.5,0.3l-2.8,1.3l0.3,0.5l3.1-1.5l0.7,0.4l-3.4,1.5l3.7,1.6l-1,0.6l-3.1-1.5l-0.3,0.5l2.8,1.3l-0.5,0.3l-2.3-1.1l-0.3,0.5
		l1.9,0.9l-0.7,0.4l-2.6,0.2l0,0l-0.5,1.9l0,0l1.9,0.5l0,0l1.5-2.2l0.7-0.4l-0.2,2.1l0.6,0l0.2-2.5l0.5-0.3l-0.2,3l0,0l0.6,0
		l0.3-3.5l0.8-0.5l-0.4,3.6l0,0.1l3.1-2.3v1.1l-2.9,2l0.3,0.5l2.6-1.7v0.5l-2.1,1.4l0.3,0.5l1.8-1.2v0.8l-1.1,2.4l0,0l1.4,1.4
		l1.4-1.4l-1.1-2.4v-0.8l1.8,1.2l0.3-0.5l-2.1-1.4v-0.5l2.6,1.7l0.3-0.5l-2.9-2v-1.1l3.1,2.3l-0.4-3.6l0.8,0.5l0.3,3.5l0,0l0.6,0
		l-0.2-3.1l0.5,0.3l0.2,2.5l0,0l0.6,0l-0.2-2.1l0.7,0.4l0,0l1.5,2.2l1.9-0.5l-0.5-1.9L746.6,241.4z M748.7,242.2l0.3,0.9l-0.9,0.3
		l-0.9-1.3L748.7,242.2z M740,248.3l-0.7-0.7l0.7-1.5l0.7,1.5L740,248.3z M740,227.7l0.7,0.7l-0.7,1.5l-0.7-1.5L740,227.7z
		 M740.6,238l1.1-0.6l1,0.5l-1.4,0.6L740.6,238z M740.3,237.5v-1.2l1-0.8l-0.2,1.5L740.3,237.5z M739.7,237.5l-0.9-0.5l-0.2-1.5
		l1.1,0.8V237.5z M739.4,238l-0.8,0.4l-1.4-0.6l1-0.5L739.4,238z M739.7,238.5v0.9l-1.1,0.8l0.1-1.1L739.7,238.5z M740.3,238.5
		l0.9,0.5l0.1,1.1l-1-0.8V238.5z M742,238.8l2.2-1l-1.9-0.8l0.5-0.3l2.5,1.1l-2.8,1.2L742,238.8z M741.9,236.6l0.3-2.4l-1.8,1.3
		v-0.5l2.3-1.7l-0.3,3.1L741.9,236.6z M739.7,235.5l-1.8-1.3l0.3,2.4l-0.5-0.3l-0.3-3.1l2.4,1.7V235.5z M737.7,237l-1.9,0.8l2.2,1
		l-0.5,0.3l-2.8-1.3l2.5-1.1L737.7,237z M738.2,239.4l-0.2,2l1.8-1.3v0.5l-2.4,1.7l0.3-2.7L738.2,239.4z M740.3,240.2l1.8,1.3
		l-0.2-2l0.5,0.3l0.3,2.7l-2.3-1.7V240.2z M749,232.8l-0.3,0.9l-1.6,0.1l0.9-1.3L749,232.8z M732.1,232.6l0.9,1.3l-1.6-0.1l-0.3-0.9
		L732.1,232.6z M731.1,243.1l0.3-0.9l1.6-0.1l-0.9,1.3L731.1,243.1z"/>
	<path id="snowflake_00000135676474053697242860000006109821307162750368_" class="st3" d="M95.8,223.4l3.5-2v-4l-3.5-2l-3.5,2v3.2
		c-0.6,0.3-1.2,0.7-1.8,1l-0.3-5.1l-1.4,0.1l0.3,5.8c-0.4,0.2-0.9,0.5-1.3,0.8l-0.3-5.1l-1.4,0.1l0.3,5.8c-0.5,0.3-1.1,0.6-1.6,1
		l-6.2-3.6c0-0.6,0-1.2,0-1.8l5.3-2.7l-0.6-1.2l-4.6,2.4c0-0.5,0-1,0-1.5l5.2-2.7l-0.6-1.2l-4.6,2.4c0-0.7,0-1.4,0-2.1l2.8-1.6v-4
		l-3.5-2l-3.5,2v4l2.8,1.6c0,0.7,0,1.4,0,2.1l-4.6-2.3l-0.6,1.2l5.2,2.7c0,0.5,0,1,0,1.5l-4.6-2.3l-0.6,1.2l5.2,2.7
		c0,0.6,0,1.2,0,1.9l-6.3,3.6c-0.5-0.3-1-0.6-1.5-1l0.3-5.9l-1.4-0.1l-0.3,5.1c-0.4-0.3-0.9-0.5-1.3-0.8l0.3-5.8l-1.4-0.1l-0.3,5
		c-0.6-0.3-1.2-0.7-1.8-1v-3.1l-3.5-2l-3.5,2v4l3.5,2l2.9-1.6c0.6,0.3,1.2,0.7,1.9,1l-4.4,2.9l0.7,1.2l5-3.3
		c0.4,0.3,0.8,0.5,1.3,0.8l-4.4,2.8l0.7,1.2l4.9-3.2c0.6,0.4,1.2,0.7,1.8,1.1v6.9c-0.6,0.3-1.1,0.7-1.7,1l-5-3.2l-0.7,1.2l4.4,2.8
		c-0.4,0.3-0.9,0.5-1.3,0.8l-5-3.2l-0.7,1.2l4.4,2.8c-0.6,0.4-1.2,0.7-1.8,1l-2.8-1.6l-3.5,2v4l3.5,2l3.5-2v-3.2
		c0.6-0.3,1.2-0.7,1.8-1l0.3,5.1l1.4-0.1l-0.3-5.8c0.4-0.2,0.9-0.5,1.3-0.8l0.3,5.1l1.4-0.1l-0.3-5.8c0.6-0.4,1.2-0.7,1.9-1.1
		l5.9,3.4c0,0.7,0,1.4,0,2.1l-5.3,2.7l0.6,1.2l4.6-2.4c0,0.5,0,1,0,1.5l-5.2,2.7l0.6,1.2l4.6-2.4c0,0.7,0,1.4,0,2.1l-2.8,1.6v4
		l3.5,2l3.5-2v-4l-2.8-1.6c0-0.7,0-1.4,0-2.1l4.6,2.3l0.6-1.2l-5.2-2.7c0-0.5,0-1,0-1.5l4.6,2.3l0.6-1.2l-5.2-2.7c0-0.7,0-1.4,0-2.1
		l5.9-3.4c0.6,0.4,1.2,0.7,1.9,1.1l-0.3,5.8l1.4,0.1l0.3-5.1c0.4,0.3,0.9,0.5,1.3,0.8l-0.3,5.8l1.4,0.1l0.3-5.1
		c0.6,0.3,1.2,0.7,1.8,1v3.2l3.5,2l3.5-2v-4l-3.5-2l-2.8,1.6c-0.6-0.3-1.2-0.7-1.8-1l4.4-2.9l-0.7-1.2l-5,3.2
		c-0.4-0.3-0.9-0.5-1.3-0.8l4.4-2.9l-0.7-1.2l-5,3.2c-0.5-0.3-1.1-0.6-1.6-1v-7.2c0.5-0.3,1.1-0.6,1.6-1l5,3.3l0.7-1.2l-4.4-2.9
		c0.4-0.3,0.9-0.5,1.3-0.8l5,3.3l0.7-1.2l-4.4-2.9c0.6-0.3,1.2-0.7,1.9-1L95.8,223.4z M94,220.4v-2l1.7-1l1.7,1l0,2l-1.7,1L94,220.4
		z M76.2,251.2v-2l1.7-1l1.7,1v2l-1.7,1L76.2,251.2z M79.7,208.1v2l-1.7,1l-1.7-1v-2l1.7-1L79.7,208.1z M80.7,228v3.1l-2.7,1.6
		l-2.7-1.6V228l2.7-1.6L80.7,228z M83,226c-0.5,0.3-1,0.6-1.5,0.9l-2.8-1.6c0-0.8,0-1.6,0-2.3l4.8,2.8C83.3,225.8,83.2,225.9,83,226
		z M77.3,225.2l-2.8,1.6c-0.7-0.3-1.4-0.7-2.1-1.1l4.9-2.9C77.3,223.7,77.3,224.4,77.3,225.2z M73.9,228.1v3.1
		c-0.7,0.4-1.3,0.8-2,1.2v-5.3C72.6,227.4,73.2,227.8,73.9,228.1z M74.7,232.3l2.6,1.5c0,0.8,0,1.6,0,2.3l-4.6-2.6
		C73.4,233.1,74,232.7,74.7,232.3z M78.6,233.9l2.6-1.5c0.7,0.4,1.3,0.8,2,1.2l-4.6,2.6C78.6,235.4,78.6,234.6,78.6,233.9z
		 M82.1,231.3v-3.2c0.6-0.3,1.1-0.7,1.7-1c0.1-0.1,0.2-0.1,0.4-0.2v5.6C83.4,232.1,82.8,231.7,82.1,231.3z M58.5,218.4l1.7-1l1.7,1
		v2l-1.7,1l-1.7-1V218.4z M61.9,238.9v2l-1.7,1l-1.7-1l0-2l1.7-1L61.9,238.9z M97.5,241l-1.7,1l-1.7-1v-2l1.7-1l1.7,1V241z"/>
	<path id="snowflake_00000085225934793185153670000016942965153631717792_" class="st3" d="M1306.9,103.4l1.2-0.7v-1.4l-1.2-0.7
		l-1.2,0.7v1.1c-0.2,0.1-0.4,0.2-0.7,0.4l-0.1-1.8l-0.5,0l0.1,2.1c-0.2,0.1-0.3,0.2-0.5,0.3l-0.1-1.8l-0.5,0l0.1,2.1
		c-0.2,0.1-0.4,0.2-0.6,0.3l-2.2-1.3c0-0.2,0-0.4,0-0.7l1.9-1l-0.2-0.4l-1.7,0.8c0-0.2,0-0.4,0-0.5l1.9-1l-0.2-0.4l-1.7,0.8
		c0-0.3,0-0.5,0-0.8l1-0.6v-1.4l-1.2-0.7l-1.2,0.7V99l1,0.6c0,0.2,0,0.5,0,0.8l-1.7-0.8l-0.2,0.4l1.9,1c0,0.2,0,0.4,0,0.5l-1.7-0.8
		l-0.2,0.4l1.9,1c0,0.2,0,0.4,0,0.7l-2.3,1.3c-0.2-0.1-0.4-0.2-0.5-0.3l0.1-2.1l-0.5,0l-0.1,1.8c-0.2-0.1-0.3-0.2-0.5-0.3l0.1-2.1
		l-0.5,0l-0.1,1.8c-0.2-0.1-0.4-0.2-0.7-0.4v-1.1l-1.2-0.7l-1.2,0.7v1.4l1.2,0.7l1-0.6c0.2,0.1,0.4,0.2,0.7,0.4l-1.6,1l0.3,0.4
		l1.8-1.2c0.2,0.1,0.3,0.2,0.5,0.3l-1.6,1l0.3,0.4l1.8-1.1c0.2,0.1,0.4,0.3,0.6,0.4v2.5c-0.2,0.1-0.4,0.2-0.6,0.4l-1.8-1.2l-0.3,0.4
		l1.6,1c-0.2,0.1-0.3,0.2-0.5,0.3l-1.8-1.2l-0.3,0.4l1.6,1c-0.2,0.1-0.4,0.3-0.7,0.4l-1-0.6l-1.2,0.7v1.4l1.2,0.7l1.2-0.7v-1.2
		c0.2-0.1,0.4-0.2,0.7-0.4l0.1,1.8l0.5,0l-0.1-2.1c0.2-0.1,0.3-0.2,0.5-0.3l0.1,1.8l0.5,0l-0.1-2.1c0.2-0.1,0.4-0.3,0.7-0.4l2.1,1.2
		c0,0.3,0,0.5,0,0.8l-1.9,1l0.2,0.4l1.7-0.8c0,0.2,0,0.4,0,0.5l-1.9,1l0.2,0.4l1.7-0.8c0,0.3,0,0.5,0,0.8l-1,0.6v1.4l1.2,0.7
		l1.2-0.7v-1.4l-1-0.6c0-0.3,0-0.5,0-0.8l1.7,0.8l0.2-0.4l-1.9-1c0-0.2,0-0.4,0-0.5l1.7,0.8l0.2-0.4l-1.9-1c0-0.3,0-0.5,0-0.8
		l2.1-1.2c0.2,0.1,0.4,0.3,0.7,0.4l-0.1,2.1l0.5,0l0.1-1.8c0.2,0.1,0.3,0.2,0.5,0.3l-0.1,2.1l0.5,0l0.1-1.8c0.2,0.1,0.4,0.2,0.7,0.4
		v1.1l1.2,0.7l1.2-0.7v-1.4l-1.2-0.7l-1,0.6c-0.2-0.1-0.4-0.2-0.7-0.4l1.6-1l-0.3-0.4l-1.8,1.2c-0.2-0.1-0.3-0.2-0.5-0.3l1.6-1
		l-0.3-0.4l-1.8,1.2c-0.2-0.1-0.4-0.2-0.6-0.3v-2.6c0.2-0.1,0.4-0.2,0.6-0.3l1.8,1.2l0.3-0.4l-1.6-1c0.2-0.1,0.3-0.2,0.5-0.3
		l1.8,1.2l0.3-0.4l-1.6-1c0.2-0.1,0.4-0.2,0.7-0.4L1306.9,103.4z M1306.3,102.3v-0.7l0.6-0.4l0.6,0.4l0,0.7l-0.6,0.4L1306.3,102.3z
		 M1299.9,113.4v-0.7l0.6-0.4l0.6,0.4v0.7l-0.6,0.4L1299.9,113.4z M1301.1,97.9v0.7l-0.6,0.4l-0.6-0.4v-0.7l0.6-0.4L1301.1,97.9z
		 M1301.5,105v1.1l-1,0.6l-1-0.6V105l1-0.6L1301.5,105z M1302.3,104.3c-0.2,0.1-0.4,0.2-0.5,0.3l-1-0.6c0-0.3,0-0.6,0-0.8l1.7,1
		C1302.4,104.2,1302.4,104.3,1302.3,104.3z M1300.3,104l-1,0.6c-0.3-0.1-0.5-0.3-0.8-0.4l1.8-1
		C1300.3,103.5,1300.3,103.7,1300.3,104z M1299,105.1v1.1c-0.2,0.1-0.5,0.3-0.7,0.4v-1.9C1298.6,104.8,1298.8,104.9,1299,105.1z
		 M1299.3,106.6l0.9,0.5c0,0.3,0,0.6,0,0.8l-1.6-0.9C1298.8,106.9,1299.1,106.7,1299.3,106.6z M1300.7,107.1l0.9-0.5
		c0.2,0.1,0.5,0.3,0.7,0.4l-1.6,1C1300.7,107.7,1300.7,107.4,1300.7,107.1z M1302,106.2v-1.1c0.2-0.1,0.4-0.2,0.6-0.4
		c0,0,0.1-0.1,0.1-0.1v2C1302.5,106.5,1302.2,106.3,1302,106.2z M1293.5,101.6l0.6-0.4l0.6,0.4v0.7l-0.6,0.4l-0.6-0.4V101.6z
		 M1294.7,108.9v0.7l-0.6,0.4l-0.6-0.4v-0.7l0.6-0.4L1294.7,108.9z M1307.5,109.7l-0.6,0.4l-0.6-0.4V109l0.6-0.4l0.6,0.4V109.7z"/>
	<path id="snowflake_00000013892679407382273460000011344762765307304349_" class="st3" d="M1049.9,43l2.7-1.6v-3.2l-2.7-1.6
		l-2.7,1.6v2.5c-0.5,0.3-1,0.5-1.4,0.8l-0.2-4l-1.1,0.1l0.2,4.5c-0.3,0.2-0.7,0.4-1,0.6l-0.2-4l-1.1,0.1l0.2,4.5
		c-0.4,0.3-0.9,0.5-1.3,0.8l-4.9-2.8c0-0.5,0-1,0-1.4l4.1-2.1l-0.5-1l-3.6,1.9c0-0.4,0-0.8,0-1.2l4.1-2.1l-0.5-1l-3.6,1.9
		c0-0.6,0-1.1,0-1.6l2.2-1.3v-3.2l-2.7-1.6l-2.7,1.6v3.2l2.2,1.3c0,0.5,0,1.1,0,1.6l-3.6-1.8l-0.5,1l4.1,2.1c0,0.4,0,0.8,0,1.2
		l-3.6-1.8l-0.5,1l4.1,2.1c0,0.5,0,1,0,1.5l-4.9,2.9c-0.4-0.2-0.8-0.5-1.2-0.8l0.2-4.6l-1.1-0.1l-0.2,4c-0.3-0.2-0.7-0.4-1-0.6
		l0.2-4.5l-1.1-0.1l-0.2,4c-0.5-0.3-0.9-0.5-1.4-0.8v-2.5l-2.7-1.6l-2.7,1.6v3.2l2.7,1.6l2.2-1.3c0.5,0.3,1,0.5,1.5,0.8l-3.5,2.3
		l0.6,0.9l3.9-2.6c0.3,0.2,0.7,0.4,1,0.6l-3.4,2.2l0.6,0.9l3.9-2.5c0.5,0.3,0.9,0.6,1.4,0.9v5.5c-0.5,0.3-0.9,0.5-1.4,0.8l-3.9-2.5
		l-0.6,0.9l3.4,2.2c-0.3,0.2-0.7,0.4-1,0.6l-3.9-2.5l-0.6,0.9l3.4,2.2c-0.5,0.3-1,0.6-1.4,0.8l-2.2-1.3l-2.7,1.6v3.2l2.7,1.6
		l2.7-1.6V55c0.5-0.3,0.9-0.5,1.4-0.8l0.2,4l1.1-0.1l-0.2-4.6c0.3-0.2,0.7-0.4,1-0.6l0.2,4l1.1-0.1l-0.2-4.6c0.5-0.3,1-0.6,1.5-0.9
		l4.7,2.7c0,0.6,0,1.1,0,1.7l-4.1,2.1l0.5,1l3.6-1.9c0,0.4,0,0.8,0,1.2l-4.1,2.1l0.5,1l3.6-1.9c0,0.6,0,1.1,0,1.6l-2.2,1.3v3.2
		l2.7,1.6l2.7-1.6v-3.2l-2.2-1.3c0-0.5,0-1.1,0-1.6l3.6,1.8l0.5-1l-4.1-2.1c0-0.4,0-0.8,0-1.2l3.6,1.8l0.5-1l-4.1-2.1
		c0-0.6,0-1.1,0-1.7l4.7-2.7c0.5,0.3,1,0.6,1.5,0.9l-0.2,4.6l1.1,0.1l0.2-4c0.3,0.2,0.7,0.4,1,0.6l-0.2,4.6l1.1,0.1l0.2-4
		c0.5,0.3,0.9,0.5,1.4,0.8v2.5l2.7,1.6l2.7-1.6v-3.2l-2.7-1.6l-2.2,1.3c-0.5-0.3-1-0.5-1.5-0.8l3.5-2.2l-0.6-0.9l-3.9,2.5
		c-0.3-0.2-0.7-0.4-1-0.6l3.5-2.2L1047,49l-3.9,2.5c-0.4-0.3-0.9-0.5-1.3-0.8v-5.7c0.4-0.3,0.9-0.5,1.3-0.8l3.9,2.6l0.6-0.9
		l-3.5-2.3c0.3-0.2,0.7-0.4,1-0.6l3.9,2.6l0.6-0.9l-3.5-2.3c0.5-0.3,1-0.5,1.5-0.8L1049.9,43z M1048.5,40.7v-1.6l1.4-0.8l1.4,0.8
		l0,1.6l-1.4,0.8L1048.5,40.7z M1034.5,64.9v-1.6l1.4-0.8l1.4,0.8v1.6l-1.4,0.8L1034.5,64.9z M1037.3,31v1.6l-1.4,0.8l-1.4-0.8V31
		l1.4-0.8L1037.3,31z M1038.1,46.6V49l-2.1,1.2l-2.1-1.2v-2.5l2.1-1.2L1038.1,46.6z M1039.9,45c-0.4,0.2-0.8,0.5-1.2,0.7l-2.2-1.3
		c0-0.6,0-1.2,0-1.8l3.8,2.2C1040.1,44.9,1040,44.9,1039.9,45z M1035.4,44.4l-2.2,1.3c-0.6-0.3-1.1-0.6-1.7-0.9l3.9-2.2
		C1035.4,43.2,1035.4,43.8,1035.4,44.4z M1032.7,46.7v2.4c-0.5,0.3-1.1,0.6-1.6,0.9v-4.2C1031.7,46.2,1032.2,46.5,1032.7,46.7z
		 M1033.3,50l2,1.2c0,0.6,0,1.2,0,1.8l-3.6-2.1C1032.3,50.6,1032.8,50.3,1033.3,50z M1036.4,51.2l2-1.2c0.5,0.3,1.1,0.6,1.6,0.9
		l-3.6,2.1C1036.4,52.5,1036.4,51.8,1036.4,51.2z M1039.1,49.2v-2.5c0.4-0.3,0.9-0.5,1.3-0.8c0.1-0.1,0.2-0.1,0.3-0.2v4.4
		C1040.2,49.8,1039.7,49.5,1039.1,49.2z M1020.6,39.1l1.4-0.8l1.4,0.8v1.6l-1.4,0.8l-1.4-0.8V39.1z M1023.3,55.2v1.6l-1.4,0.8
		l-1.4-0.8l0-1.6l1.4-0.8L1023.3,55.2z M1051.3,56.8l-1.4,0.8l-1.4-0.8v-1.6l1.4-0.8l1.4,0.8V56.8z"/>
</g>
<g id="Calque_2">
</g>
<g id="Calque_3">
	<g>
		<defs>
			<path id="SVGID_1_" d="M1490.5,234.3c0,32.7-26.5,59.1-59.1,59.1c-32.7,0-59.1-26.5-59.1-59.1c0-29.9,22.2-54.6,51-58.6l0.1-9.3
				l15.2,0.2l0.1,9C1467.8,179.2,1490.5,204.1,1490.5,234.3z"/>
		</defs>
		<clipPath id="SVGID_00000163035472507549256150000007171363763896875659_">
			<use xlink:href="#SVGID_1_"  style="overflow:visible;"/>
		</clipPath>
		<g style="clip-path:url(#SVGID_00000163035472507549256150000007171363763896875659_);">
			
				<image style="overflow:visible;" width="3000" height="4000" xlink:href="IMG_20221222_161847.jpg"  transform="matrix(4.251734e-02 0 0 4.251734e-02 1372.204 131.8824)">
			</image>
		</g>
	</g>
	<rect x="1431.4" y="-117.7" class="st3" width="0.4" height="284.3"/>
	<g>
		<defs>
			<path id="SVGID_00000075868550909445762220000005698820836993623959_" d="M814,152.8c0,39.9-32.4,72.3-72.3,72.3
				c-39.9,0-72.3-32.4-72.3-72.3c0-36.5,27.1-66.8,62.3-71.6l0.2-11.3l18.6,0.2l0.1,11C786.3,85.4,814,115.9,814,152.8z"/>
		</defs>
		<clipPath id="SVGID_00000037660118873925992960000010168634747913982897_">
			<use xlink:href="#SVGID_00000075868550909445762220000005698820836993623959_"  style="overflow:visible;"/>
		</clipPath>
		<g style="clip-path:url(#SVGID_00000037660118873925992960000010168634747913982897_);">
			
				<image style="overflow:visible;" width="3000" height="4000" xlink:href="IMG_20221222_153457.jpg"  transform="matrix(4.819928e-02 0 0 4.819928e-02 669.3978 41.3267)">
			</image>
		</g>
	</g>
	<g>
		<defs>
			<path id="SVGID_00000054944733726206731380000006763064109713556642_" d="M1058.5,99.6c0,26.7-21.7,48.4-48.4,48.4
				s-48.4-21.7-48.4-48.4c0-24.5,18.2-44.7,41.7-48l0.1-7.6l12.4,0.2l0.1,7.4C1040,54.4,1058.5,74.8,1058.5,99.6z"/>
		</defs>
		<clipPath id="SVGID_00000178169267359210027440000005239797457747997375_">
			<use xlink:href="#SVGID_00000054944733726206731380000006763064109713556642_"  style="overflow:visible;"/>
		</clipPath>
		<g style="clip-path:url(#SVGID_00000178169267359210027440000005239797457747997375_);">
			
				<image style="overflow:visible;" width="3000" height="4000" xlink:href="IMG_20221222_151657.jpg"  transform="matrix(3.414541e-02 0 0 3.414541e-02 958.4043 26.6622)">
			</image>
		</g>
	</g>
	<g>
		<defs>
			<path id="SVGID_00000021085541842795225570000009727205228149065364_" d="M1333.6,189.9c0,34.9-28.3,63.3-63.3,63.3
				s-63.3-28.3-63.3-63.3c0-32,23.7-58.4,54.5-62.7l0.1-9.9l16.3,0.2l0.1,9.6C1309.4,131,1333.6,157.6,1333.6,189.9z"/>
		</defs>
		<clipPath id="SVGID_00000158005640126432261080000011683143551850971021_">
			<use xlink:href="#SVGID_00000021085541842795225570000009727205228149065364_"  style="overflow:visible;"/>
		</clipPath>
		
			<g transform="matrix(1 0 0 1 0 -7.629395e-06)" style="clip-path:url(#SVGID_00000158005640126432261080000011683143551850971021_);">
			
				<image style="overflow:visible;" width="3000" height="4000" xlink:href="IMG_20221222_154313.jpg"  transform="matrix(4.452531e-02 0 0 4.452531e-02 1199.9045 100.0448)">
			</image>
		</g>
	</g>
	<g>
		<defs>
			<path id="SVGID_00000116210513535624709390000008828919275060975551_" d="M595.2,220.2c0,37.2-30.2,67.4-67.4,67.4
				s-67.4-30.2-67.4-67.4c0-34,25.3-62.2,58.1-66.7l0.2-10.6l17.3,0.2l0.1,10.2C569.5,157.4,595.2,185.8,595.2,220.2z"/>
		</defs>
		<clipPath id="SVGID_00000150060197519853778900000003065258523965307578_">
			<use xlink:href="#SVGID_00000116210513535624709390000008828919275060975551_"  style="overflow:visible;"/>
		</clipPath>
		<g style="clip-path:url(#SVGID_00000150060197519853778900000003065258523965307578_);">
			
				<image style="overflow:visible;" width="3000" height="4000" xlink:href="IMG_20221222_151638.jpg"  transform="matrix(6.276212e-02 0 0 6.276212e-02 431.2761 94.3623)">
			</image>
		</g>
	</g>
	<g>
		<defs>
			<path id="SVGID_00000060009263205481403150000015886067369859273875_" d="M1479.6,69.8c0,29.9-24.3,54.2-54.2,54.2
				s-54.2-24.3-54.2-54.2c0-27.4,20.3-50,46.7-53.7l0.1-8.5l13.9,0.2l0.1,8.2C1458.8,19.3,1479.6,42.1,1479.6,69.8z"/>
		</defs>
		<clipPath id="SVGID_00000074432520143774341940000004522178658060271772_">
			<use xlink:href="#SVGID_00000060009263205481403150000015886067369859273875_"  style="overflow:visible;"/>
		</clipPath>
		<g style="clip-path:url(#SVGID_00000074432520143774341940000004522178658060271772_);">
			
				<image style="overflow:visible;" width="3000" height="4000" xlink:href="IMG_20221222_153006.jpg"  transform="matrix(3.613834e-02 0 0 3.613834e-02 1371.1501 -1.0726)">
			</image>
		</g>
	</g>
	<rect x="527.2" y="-79.7" class="st3" width="1.2" height="222.6"/>
	<rect x="741.7" y="-148" class="st3" width="1.2" height="217.9"/>
	<rect x="1009.3" y="-172" class="st3" width="0.3" height="216.1"/>
	<rect x="1270.5" y="-142.3" class="st3" width="0.4" height="259.7"/>
	<polyline class="st3" points="1424.6,-208.8 1424.6,7.9 1424.3,7.9 1424.3,-208.8 	"/>
	<g>
		<defs>
			<path id="SVGID_00000165942954329853364560000010423340670034233277_" d="M1217.2,107.9c0,32.8-26.6,59.3-59.3,59.3
				c-32.8,0-59.3-26.6-59.3-59.3c0-30,22.2-54.8,51.1-58.8l0.1-9.3l15.3,0.2l0.1,9C1194.5,52.6,1217.2,77.6,1217.2,107.9z"/>
		</defs>
		<clipPath id="SVGID_00000142859181160071193340000003638102205205702797_">
			<use xlink:href="#SVGID_00000165942954329853364560000010423340670034233277_"  style="overflow:visible;"/>
		</clipPath>
		
			<g transform="matrix(1 0 0 1 0 -9.536743e-07)" style="clip-path:url(#SVGID_00000142859181160071193340000003638102205205702797_);">
			
				<image style="overflow:visible;" width="3000" height="4000" xlink:href="IMG_20221222_152508.jpg"  transform="matrix(3.947040e-02 0 0 3.947040e-02 1098.7917 11.9234)">
			</image>
		</g>
	</g>
	<rect x="1157.9" y="-139" class="st3" width="1" height="178.8"/>
	<g>
		<defs>
			<path id="SVGID_00000004524550844792739860000013745153148474290873_" d="M1019.9,229.2c0,39.2-31.8,71-71,71s-71-31.8-71-71
				c0-35.9,26.6-65.5,61.2-70.3l0.2-11.1l18.2,0.2l0.1,10.8C992.8,163.1,1019.9,193,1019.9,229.2z"/>
		</defs>
		<clipPath id="SVGID_00000011728509555693505030000002512600792550392220_">
			<use xlink:href="#SVGID_00000004524550844792739860000013745153148474290873_"  style="overflow:visible;"/>
		</clipPath>
		
			<g transform="matrix(1 0 0 1 -6.103516e-05 0)" style="clip-path:url(#SVGID_00000011728509555693505030000002512600792550392220_);">
			
				<image style="overflow:visible;" width="3000" height="4000" xlink:href="IMG_20221222_152430.jpg"  transform="matrix(4.975889e-02 0 0 4.975889e-02 875.3354 120.6191)">
			</image>
		</g>
	</g>
	<rect x="948.3" y="-113.3" class="st3" width="1.3" height="261.1"/>
	<g>
		<defs>
			<path id="SVGID_00000018941183586003552100000016294870123634084519_" d="M656.2,79.5c0,33.9-27.5,61.4-61.4,61.4
				s-61.4-27.5-61.4-61.4c0-31,23-56.7,52.9-60.8l0.1-9.6l15.8,0.2l0.1,9.3C632.7,22.3,656.2,48.1,656.2,79.5z"/>
		</defs>
		<clipPath id="SVGID_00000000212932067050450570000012332033202848521626_">
			<use xlink:href="#SVGID_00000018941183586003552100000016294870123634084519_"  style="overflow:visible;"/>
		</clipPath>
		<g style="clip-path:url(#SVGID_00000000212932067050450570000012332033202848521626_);">
			
				<image style="overflow:visible;" width="3000" height="4000" xlink:href="IMG_20221222_152701.jpg"  transform="matrix(4.995123e-02 0 0 4.995123e-02 531.6652 -44.4037)">
			</image>
		</g>
	</g>
	<rect x="594.8" y="-176.1" class="st3" width="1" height="185.1"/>
	<g>
		<defs>
			<path id="SVGID_00000147181613432502065150000015672129042563976614_" d="M931.2,80.7c0,32.1-26,58.1-58.1,58.1
				c-32.1,0-58.1-26-58.1-58.1c0-29.3,21.8-53.6,50-57.5l0.1-9.1l14.9,0.2l0.1,8.8C909,26.6,931.2,51.1,931.2,80.7z"/>
		</defs>
		<clipPath id="SVGID_00000046308182513111043110000001295695864499187883_">
			<use xlink:href="#SVGID_00000147181613432502065150000015672129042563976614_"  style="overflow:visible;"/>
		</clipPath>
		<g style="clip-path:url(#SVGID_00000046308182513111043110000001295695864499187883_);">
			
				<image style="overflow:visible;" width="3000" height="4000" xlink:href="IMG_20221222_152039.jpg"  transform="matrix(4.177520e-02 0 0 4.177520e-02 815.0955 -23.0693)">
			</image>
		</g>
	</g>
	<rect x="873.2" y="-224.2" class="st3" width="0.4" height="238.4"/>
</g>
</svg>
